# xmcd CD database file
#
# Track frame offsets:
#	150
#	20865
#	37465
#	58040
#
# Disc length: 991 seconds
#
# Revision: 1
# Processed by: cddbd v1.5PL3 Copyright (c) Steve Scherf et al.
# Submitted via: CDex 1.50beta10
#
DISCID=3a03dd04
DTITLE=新堂敦士 - 祈望
DYEAR=2003
DGENRE=JPop
TTITLE0=祈望
TTITLE1=Nervous Breakdown
TTITLE2=祈望（Karaoke）
TTITLE3=Nervous Breakdown（Karaoke）
EXTD=YEAR: 2003
EXTT0=
EXTT1=
EXTT2=
EXTT3=
PLAYORDER=
